<?xml version="1.0" encoding="UTF-8" standalone="no"?>
<!-- Created with Inkscape (http://www.inkscape.org/) -->

<svg
   width="163.67136mm"
   height="45.607037mm"
   viewBox="0 0 163.67136 45.607037"
   version="1.1"
   id="svg1"
   xml:space="preserve"
   xmlns="http://www.w3.org/2000/svg"
   xmlns:svg="http://www.w3.org/2000/svg"><defs
     id="defs1" /><g
     id="layer1-3"
     transform="translate(-23.203913,-123.37964)"><path
       fill="#272b74"
       opacity="1"
       stroke="none"
       d="m 1927.3002,571.27313 c -0.5186,0.64065 -0.9558,1.32507 -1.5786,1.7063 -0.626,0.3832 -1.4366,0.65074 -2.1666,0.65146 -32.0368,0.031 -64.0737,0.0268 -96.1106,0.0268 -22.7923,0 -45.5848,-0.012 -68.3771,0.0195 -2.1554,0.003 -3.9406,-1.76965 -3.9396,-3.9645 0.026,-54.82926 0.02,-109.65853 0.02,-164.4878 0,-1.82413 1.0546,-3.33595 2.6555,-3.84413 0.7922,-0.0666 1.562,-0.0666 2.4411,-0.001 0.7211,0.48792 1.4161,0.82753 1.9324,1.34526 11.4504,11.48209 22.8655,22.99944 34.3185,34.47894 34.7575,34.83781 69.5267,69.66389 104.2948,104.49116 8.2435,8.25756 16.5034,16.49876 24.7447,24.75849 0.6335,0.63492 1.1788,1.3578 1.7652,2.03977 0,0.89697 0,1.79392 0,2.78003 z"
       id="path2-5"
       style="fill:#ffffff;fill-opacity:1;stroke-width:0.19128"
       transform="matrix(0.26458333,0,0,0.26458333,-323.05624,17.198612)" /><path
       fill="#81c66d"
       opacity="1"
       stroke="none"
       d="m 1391.4345,401.31414 c 0.3487,0.0638 0.6059,0.17437 0.867,0.18432 4.724,0.18011 9.3862,0.79563 13.9998,1.83994 6.7122,1.51937 13.0955,3.90608 19.1711,7.1246 4.0031,2.12062 7.8378,4.52509 11.3392,7.39454 2.9302,2.40135 5.8247,4.87618 8.4964,7.55637 4.4783,4.49257 8.325,9.51313 11.6453,14.93319 3.1619,5.16149 5.752,10.58756 7.8296,16.27047 1.7686,4.83762 2.989,9.81991 3.972,14.86034 0.4019,2.06093 0.6501,4.16467 0.7914,6.26085 0.2658,3.94553 0.5948,7.90248 0.5377,11.84947 -0.052,3.61209 -0.5361,7.2218 -0.9084,10.82444 -0.4682,4.53178 -1.5352,8.94604 -2.8405,13.30155 -1.2893,4.30201 -2.7783,8.53873 -4.8315,12.53973 -1.6466,3.20874 -3.456,6.33395 -5.1918,9.497 -0.1181,0.21525 -0.2245,0.43692 -0.352,0.68621 3.9251,3.9221 7.773,7.87335 11.744,11.69666 2.5569,2.46178 2.3737,5.92652 -0.022,8.2389 -5.114,4.93649 -10.1263,9.98129 -15.0853,15.07417 -2.12,2.17721 -5.7323,2.04908 -7.7652,0.005 -16.5434,-16.63804 -33.1408,-33.22249 -49.7673,-49.77747 -1.7225,-1.71506 -1.8684,-5.41156 -0.045,-7.1605 5.498,-5.27228 10.8514,-10.69776 16.1773,-16.14544 1.392,-1.42385 4.8264,-1.61434 6.1778,-0.34046 0.5747,0.54175 1.2023,1.02886 1.7616,1.58526 3.2773,3.25986 6.5454,6.52898 9.802,9.80943 0.2407,0.24251 0.3671,0.59854 0.5467,0.9018 0.1192,-0.0767 0.2385,-0.15331 0.3577,-0.22997 0.2968,-1.3002 0.6851,-2.58741 0.8719,-3.90322 0.4415,-3.1087 0.9382,-6.22151 1.1349,-9.35012 0.2725,-4.33548 0.5004,-8.69382 0.3592,-13.02974 -0.1468,-4.51126 -0.7723,-8.99284 -1.7988,-13.42371 -1.1395,-4.91903 -2.741,-9.64819 -5.0335,-14.13326 -1.7352,-3.39464 -3.8852,-6.51475 -6.3775,-9.4207 -3.6418,-4.24631 -8.0351,-7.44634 -13.1029,-9.72473 -3.0673,-1.37898 -6.2738,-2.37094 -9.6439,-2.70018 -2.3207,-0.22671 -4.6542,-0.60101 -6.971,-0.53354 -5.3679,0.15631 -10.587,1.13039 -15.5334,3.37772 -3.6081,1.63929 -6.877,3.74645 -9.882,6.32567 -3.9283,3.37166 -6.9828,7.41662 -9.5516,11.87102 -2.0972,3.63681 -3.6744,7.49112 -4.8874,11.50082 -1.0722,3.54417 -1.9322,7.13826 -2.2706,10.83233 -0.2474,2.70177 -0.4531,5.41042 -0.5644,8.12065 -0.092,2.23677 -0.2144,4.50178 0.027,6.71608 0.4003,3.67252 0.9992,7.32952 1.6651,10.96549 0.9389,5.12606 2.7795,9.96272 5.1849,14.56972 1.8669,3.57556 4.1478,6.87057 6.8513,9.89575 3.715,4.15697 8.0963,7.35005 13.1337,9.68244 2.9162,1.35024 5.9763,2.22458 9.1256,2.84251 3.6097,0.70826 7.2558,0.6235 10.8932,0.53125 1.6182,-0.041 3.2242,-0.46583 4.8412,-0.67337 2.4556,-0.31519 4.7215,0.0708 6.5589,1.90857 5.9955,5.99677 11.9926,11.99187 17.9875,17.98926 1.9351,1.93589 1.4882,4.88995 -0.9769,6.06202 -5.2847,2.51272 -10.7962,4.35726 -16.5282,5.56711 -3.7289,0.78704 -7.4729,1.39873 -11.2871,1.50571 -2.7617,0.0775 -5.5349,0.31368 -8.2841,0.15396 -6.1818,-0.35915 -12.2744,-1.30702 -18.2288,-3.12233 -4.9152,-1.49846 -9.6538,-3.3873 -14.1805,-5.8011 -4.7784,-2.54806 -9.3198,-5.47221 -13.4022,-9.04414 -2.6456,-2.31472 -5.307,-4.63752 -7.7221,-7.1836 -4.3602,-4.59654 -8.1017,-9.68365 -11.3176,-15.15833 -3.2574,-5.5454 -5.8724,-11.36925 -7.8548,-17.48169 -1.4414,-4.44456 -2.5961,-8.95949 -3.2304,-13.5949 -0.2853,-2.08449 -0.5095,-4.1773 -0.7753,-6.26456 -0.021,-0.16901 -0.1509,-0.32427 -0.3012,-0.51543 -0.071,-0.11452 -0.071,-0.19953 0,-0.38757 0.023,-0.65069 -0.023,-1.19835 -0.068,-1.74602 0,-3.76584 0,-7.53168 0.068,-11.42643 0.023,-0.67658 -0.023,-1.22424 -0.068,-1.7719 0,-0.085 0,-0.17003 0.071,-0.34847 0.1504,-0.25715 0.2795,-0.41453 0.3013,-0.58558 0.2659,-2.08706 0.4963,-4.17877 0.7743,-6.26415 0.5977,-4.4826 1.6997,-8.85306 3.0678,-13.15375 2.0344,-6.39532 4.7488,-12.48768 8.2009,-18.25443 4.4383,-7.41434 9.7427,-14.11351 16.269,-19.79844 2.3716,-2.06583 4.7625,-4.13773 7.3273,-5.94795 6.9456,-4.90212 14.4772,-8.64992 22.6505,-11.08854 6.3269,-1.88771 12.7699,-2.98294 19.3679,-3.18231 0.197,-0.006 0.3907,-0.12013 0.586,-0.18386 1.343,0 2.6859,0 4.1185,0 z"
       id="path3-6"
       style="fill:#ffffff;fill-opacity:1;stroke-width:0.19128"
       transform="matrix(0.26458333,0,0,0.26458333,-323.05624,17.198612)" /><path
       fill="#81c66d"
       opacity="1"
       stroke="none"
       d="m 1604.1382,401.31414 c 1.8489,0.62098 3.2863,1.57918 3.7535,3.53501 0.079,0.33162 0.1552,0.67504 0.1552,1.01302 0.01,38.98819 0.01,77.97638 -0.01,116.96458 0,1.60664 -0.6966,3.02387 -1.8084,4.14052 -9.0647,9.10402 -18.1606,18.17698 -27.2357,27.27055 -0.629,0.6302 -1.3159,0.88462 -2.1359,0.55282 -0.8668,-0.35074 -1.1481,-1.04783 -1.1468,-1.978 0.018,-12.62412 0.058,-25.24853 -0.014,-37.87226 -0.023,-4.10537 -1.1516,-7.98374 -3.7208,-11.25294 -2.1086,-2.68315 -4.9349,-4.38107 -8.3327,-4.99725 -0.8329,-0.15102 -1.6947,-0.19652 -2.5433,-0.19739 -12.0184,-0.0122 -24.0371,-0.0494 -36.0551,0.0196 -3.1483,0.0181 -5.9415,1.27501 -8.2872,3.38461 -3.3863,3.04543 -4.9422,6.97339 -5.2987,11.43128 -0.1135,1.41902 -0.1882,2.84544 -0.1893,4.26855 -0.013,17.08721 -0.031,34.17448 0.017,51.26158 0.01,2.45232 -2.1973,4.65148 -4.5901,4.63178 -7.7462,-0.0638 -15.4937,-0.0745 -23.2394,0.008 -2.2225,0.0237 -4.5554,-2.32413 -4.5537,-4.58819 0.04,-54.16262 0.035,-108.32531 0.017,-162.48797 -8e-4,-2.20253 0.9142,-3.7314 2.8379,-4.71701 0.1374,-0.0704 0.2566,-0.17599 0.4061,-0.32813 8.3784,-0.0629 16.735,-0.0629 25.2136,7.1e-4 2.1275,0.32536 3.9376,2.58971 3.9148,4.59777 -0.082,7.20178 -0.057,14.40516 -0.025,21.60773 0.034,7.92443 0.067,15.84957 0.2065,23.77254 0.073,4.1802 1.659,7.74318 4.9255,10.47808 3.035,2.5411 6.5895,3.86641 10.476,3.90441 10.9305,0.10689 21.8629,0.0693 32.7941,0.003 1.6403,-0.01 3.3202,-0.32796 4.908,-0.76892 3.6858,-1.02356 6.732,-3.02225 8.8192,-6.33037 1.7046,-2.7017 2.2844,-5.72978 2.2976,-8.82113 0.062,-14.62823 0.028,-29.25689 0.027,-43.8854 -10e-5,-1.22285 0.3591,-2.34163 1.3045,-3.10922 0.7532,-0.61165 1.6751,-1.01573 2.5221,-1.51195 8.1653,-10e-6 16.3305,-10e-6 24.5855,-10e-6 z"
       id="path4-2"
       style="fill:#ffffff;fill-opacity:1;stroke-width:0.19128"
       transform="matrix(0.26458333,0,0,0.26458333,-323.05624,17.198612)" /><path
       fill="#81c66d"
       opacity="1"
       stroke="none"
       d="m 1642.3942,401.31414 c 0.6674,0.0638 1.2529,0.22259 1.8214,0.17526 2.8636,-0.23844 5.0106,2.48581 4.9984,4.98259 -0.072,14.69279 -0.067,29.38623 -0.011,44.07916 0.013,3.31918 0.8359,6.50872 2.9071,9.18646 1.7586,2.2734 4.0227,3.95909 6.7841,4.89567 0.948,0.32155 1.8951,0.6516 2.8585,0.92085 1.5699,0.43873 2.0547,1.80776 1.0656,3.1152 -0.1144,0.15121 -0.264,0.27609 -0.3991,0.41126 -14.0181,14.01817 -28.0359,28.03652 -42.055,42.05353 -1.1894,1.18923 -2.3702,1.26246 -3.2292,0.12873 -0.2802,-0.36985 -0.3369,-0.91644 -0.4648,-1.39055 -0.048,-0.17836 -0.01,-0.38038 -0.01,-0.57162 -10e-5,-34.03964 0,-68.07928 0.01,-102.11892 0,-1.29238 0.1816,-2.56983 0.9572,-3.67911 0.9086,-1.29943 2.1288,-2.00203 3.7349,-2.00002 0.5084,6.4e-4 1.0168,-0.0317 1.5682,-0.11873 0.9401,-0.0698 1.837,-0.0698 2.8665,2.4e-4 4.0539,0.0863 7.9753,0.10453 11.8968,0.11103 0.1302,2.2e-4 0.2606,-0.11801 0.3909,-0.18103 1.4067,0 2.8135,0 4.3098,0 z"
       id="path7-9"
       style="fill:#ffffff;fill-opacity:1;stroke-width:0.19128"
       transform="matrix(0.26458333,0,0,0.26458333,-323.05624,17.198612)" /><path
       fill="#81c66d"
       opacity="1"
       stroke="none"
       d="m 1723.4971,401.31414 c 1.1754,0.0638 2.2614,0.12446 3.3468,0.19322 0.3109,0.0197 0.6608,-0.0192 0.9227,0.11041 0.7882,0.38989 0.9094,1.19709 0.2775,1.83091 -4.2011,4.21354 -8.4022,8.42718 -12.6434,12.60002 -0.2932,0.28843 -0.9497,0.40559 -1.3629,0.30299 -0.2665,-0.0662 -0.5588,-0.67736 -0.5634,-1.04776 -0.043,-3.4041 -0.079,-6.81013 0,-10.21311 0.04,-1.82176 1.1795,-2.95893 2.8241,-3.71241 2.3864,-0.0643 4.7495,-0.0643 7.2023,-0.0643 z"
       id="path9-1"
       style="fill:#ffffff;fill-opacity:1;stroke-width:0.19128"
       transform="matrix(0.26458333,0,0,0.26458333,-323.05624,17.198612)" /><path
       fill="#ffffff"
       opacity="1"
       stroke="none"
       d="m 1637.9948,401.31414 c -0.041,0.063 -0.1711,0.18125 -0.3013,0.18103 -3.9215,-0.006 -7.8429,-0.0247 -11.8076,-0.11103 3.9775,-0.07 7.9984,-0.07 12.1089,-0.07 z"
       id="path10-2"
       style="stroke-width:0.19128"
       transform="matrix(0.26458333,0,0,0.26458333,-323.05624,17.198612)" /><path
       fill="#ffffff"
       opacity="1"
       stroke="none"
       d="m 1308.6998,480.20768 c 0.045,0.4616 0.09,1.00926 0.068,1.59619 -0.068,-0.47719 -0.068,-0.99366 -0.068,-1.59619 z"
       id="path11-7"
       style="stroke-width:0.19128"
       transform="matrix(0.26458333,0,0,0.26458333,-323.05624,17.198612)" /><path
       fill="#ffffff"
       opacity="1"
       stroke="none"
       d="m 1308.6998,493.40602 c 0.045,0.4616 0.09,1.00926 0.068,1.59618 -0.068,-0.47718 -0.068,-0.99365 -0.068,-1.59618 z"
       id="path12-0"
       style="stroke-width:0.19128"
       transform="matrix(0.26458333,0,0,0.26458333,-323.05624,17.198612)" /><path
       fill="#272b74"
       opacity="1"
       stroke="none"
       d="m 1713.4489,525.26376 c 0,-3.6658 0.058,-7.23713 -0.014,-10.80585 -0.1018,-5.07475 -1.8425,-9.48485 -5.768,-12.82421 -1.9163,-1.63024 -4.2388,-2.5769 -6.7349,-2.93402 -1.3686,-0.19579 -2.7715,-0.20469 -4.159,-0.20668 -10.7104,-0.0154 -21.4212,-0.0508 -32.1313,0.015 -3.6382,0.0224 -6.939,1.31599 -9.8526,3.4729 -3.4229,2.53389 -5.0346,6.08225 -5.4122,10.24417 -0.1139,1.25595 -0.1893,2.5203 -0.1901,3.78087 -0.012,17.97832 -0.025,35.95669 0.015,53.93494 0,2.02705 -1.7087,3.75882 -3.7761,3.74266 -8.0961,-0.0633 -16.1935,-0.0761 -24.2894,0 -3.0477,0.0287 -4.4687,-1.55546 -4.4711,-4.47584 -0.01,-11.82618 -0.012,-23.65235 0,-35.4785 0,-1.89828 0.018,-3.80674 0.2095,-5.69191 0.2253,-2.215 1.1472,-4.21104 2.722,-5.78875 17.7675,-17.80061 35.5448,-35.59157 53.3607,-53.34369 1.9268,-1.91991 4.3845,-2.92836 7.1632,-2.93439 5.5465,-0.0121 11.0931,0.0138 16.6395,-0.009 4.3302,-0.0179 8.3215,-1.20789 11.6971,-3.95025 2.4638,-2.0017 4.026,-4.68896 4.5738,-7.83487 0.3003,-1.72437 0.3761,-3.5025 0.396,-5.25817 0.052,-4.58962 0.059,-9.18071 0,-13.77029 -0.045,-3.80297 1.1804,-6.9838 3.9858,-9.63669 2.6071,-2.46544 5.0391,-5.11629 7.5416,-7.69192 1.7696,-1.82133 3.54,-3.64201 5.2881,-5.48383 1.6974,-1.78848 3.3327,-3.63718 5.0585,-5.39732 1.6721,-1.70537 3.357,-3.41121 5.17,-4.96034 0.9547,-0.81579 2.2379,-0.68716 3.3811,-0.1771 1.3008,0.58038 1.9984,1.6203 2.1037,3.04638 0.012,0.15852 0,0.31865 0,0.47803 0,54.82753 -0.01,109.65507 0.029,164.48258 0,2.16323 -1.7277,3.89773 -3.8399,3.87935 -8.2235,-0.0716 -16.4481,-0.0522 -24.6721,-0.014 -2.218,0.0103 -4.0244,-1.38674 -4.0313,-4.04064 -0.012,-4.49455 0,-8.98916 0,-13.48374 0,-10.26303 0,-20.52608 0,-30.88475 z"
       id="path13-9"
       style="fill:#ffffff;fill-opacity:1;stroke-width:0.19128"
       transform="matrix(0.26458333,0,0,0.26458333,-323.05624,17.198612)" /><path
       fill="#272b74"
       opacity="1"
       stroke="none"
       d="m 1592.9423,573.46639 c -4.7787,0 -9.4617,-0.0102 -14.1447,0.006 -1.4411,0.005 -2.4589,-0.65388 -3.0569,-1.90824 -0.6287,-1.31874 -0.6638,-2.65608 0.3069,-3.86002 0.5329,-0.66087 1.1039,-1.29614 1.7039,-1.89687 8.8471,-8.85856 17.6963,-17.71516 26.5718,-26.5453 0.4567,-0.45433 1.1233,-0.84328 1.7467,-0.95281 1.1512,-0.2023 1.9805,0.63605 1.981,1.81575 0,9.9076 -0.01,19.81522 0.013,29.72277 0,1.65301 -1.8644,3.75404 -3.6557,3.67159 -3.783,-0.1741 -7.5797,-0.053 -11.4664,-0.053 z"
       id="path14-3"
       style="fill:#ffffff;fill-opacity:1;stroke-width:0.19128"
       transform="matrix(0.26458333,0,0,0.26458333,-323.05624,17.198612)" /><path
       fill="#81c66d"
       opacity="1"
       stroke="none"
       d="m 1882.5406,438.99636 c 5.9287,0 11.7618,0.0268 17.5946,-0.0141 2.126,-0.0149 3.9352,1.29148 4.0196,3.92566 0,0.12737 0,0.25498 0,0.38248 0,26.9657 0.01,53.9314 -0.013,80.89708 0,2.70105 -1.0211,3.7619 -3.268,4.22651 -1.2003,0.24817 -2.278,-0.23582 -3.1569,-1.08324 -0.8259,-0.79633 -1.6261,-1.61934 -2.4375,-2.43073 -14.0866,-14.08656 -28.1857,-28.16077 -42.2561,-42.26346 -12.3763,-12.40463 -24.7208,-24.84092 -37.0789,-37.26373 -1.181,-1.18719 -1.4815,-2.7162 -0.8422,-4.25411 0.5809,-1.39764 1.7625,-2.12212 3.4672,-2.12214 21.2923,-2.8e-4 42.5841,-1.8e-4 63.9716,-1.8e-4 z"
       id="path15-6"
       style="fill:#ffffff;fill-opacity:1;stroke-width:0.19128"
       transform="matrix(0.26458333,0,0,0.26458333,-323.05624,17.198612)" /></g></svg>
